<svg width="170" height="88" viewBox="0 0 170 88" fill="none" xmlns="http://www.w3.org/2000/svg">
<path fill-rule="evenodd" clip-rule="evenodd" d="M69.6 87.5333H57.6987V22.3333L102.4 65.232C110.501 72.032 118.101 75.3333 125.6 75.3333C143 75.3333 157.2 61.1333 157.2 43.7333C157.2 26.3333 143 12.1333 125.6 12.1333H115.701V0.333328H125.6C149.6 0.333328 169.101 19.8347 169.101 43.8347C169.101 67.8347 149.6 87.3307 125.6 87.3307C115.099 87.3307 105 83.032 94.6 74.2293L94.2987 74.0293L69.6 50.3333V87.5333ZM51.4 87.432H43.5013C19.5013 87.4347 0 67.9333 0 43.9333C0 19.9333 19.5013 0.431995 43.5013 0.431995C44.8133 0.431995 46.1253 0.519995 47.52 0.613328L47.8 0.631995C55.6987 1.43199 63.2 4.33333 69.6 9.13333L70 9.432L74.4 13.3333L97.9013 35.1333V0.431995H109.901V62.3333L66.3013 22.1333L62.2 18.5333C57.6 15.1333 52.2 13.1333 46.6 12.5333C45.57 12.4169 44.5351 12.3501 43.4987 12.3333C26.0987 12.432 11.8987 26.6347 11.8987 44.032C11.8987 61.4347 26.0987 75.632 43.4987 75.632H51.4V87.432Z" fill="#654EA3"/>
</svg>
